{"title":"The.Transporter.Refueled.2015.BRRip.480p.x264.AAC-VYTO [P2PDL]","uid":12926570,"size":374502482,"categoryP":"video","categoryS":"movies","magnet":"?xt=urn:btih:d09a0c1eff73f6a317bef2b2a72897d73373faaf&amp;dn=The.Transporter.Refueled.2015.BRRip.480p.x264.AAC-VYTO+%5BP2PDL%5D&amp;tr=udp%3A%2F%2Ftracker.leechers-paradise.org%3A6969&amp;tr=udp%3A%2F%2Fzer0day.ch%3A1337&amp;tr=udp%3A%2F%2Fopen.demonii.com%3A1337&amp;tr=udp%3A%2F%2Ftracker.coppersurfer.tk%3A6969&amp;tr=udp%3A%2F%2Fexodus.desync.com%3A6969","seeders":0,"leechers":3,"uploader":"VYTOP2PDL","files":7,"time":1449476201,"description":"____    ____ ____    ____ .___________.  ______   \r\n     /   /      /   / |           | /  __    \r\n    /   /      /   /  `---|  |----`|  |  |  | \r\n        /     _    _/       |  |     |  |  |  | \r\n       /        |  |         |  |     |  `--'  | \r\n    __/         |__|         |__|      ______/  \r\n                                                  \r\nPresenting Small Encodes with quality for years!\r\n                                                                                                   \r\n                                                                                                   \r\n\r\nThe.Transporter.Refueled.2015.BRRip.480p.x264.AAC-VYTO\r\n\r\n\r\nGenre: Action, Crime, Thriller    \nhttp://www.imdb.com/title/tt2938956/\r\n\r\n\r\nGeneral\r\nFormat                         : MPEG-4\r\nFile size                      : 351 MiB\r\nDuration                       : 1h 35mn\r\nOverall bit rate               : 512 Kbps\r\n\r\nVideo\r\nFormat                         : AVC\r\nBit rate                       : 477 Kbps\r\nWidth                          : 720 pixels\r\nHeight                         : 304 pixels\r\nDisplay aspect ratio           : 2.40:1\r\nFrame rate mode                : Constant\r\nFrame rate                     : 23.976 fps\r\nColor space                    : YUV\r\nChroma subsampling             : 4:2:0\r\nBit depth                      : 8 bits\r\nStream size                    : 327 MiB (93%)\r\nWriting library                : x264\r\n\r\nAudio\r\nFormat                         : AAC\r\nBit rate mode                  : Variable\r\nBit rate                       : 32.0 Kbps\r\nChannel(s)                     : 2 channels\r\nChannel positions              : Front: L R \r\nSampling rate                  : 48.0 KHz\r\nStream size                    : 21.9 MiB (6%)\r\n\r\nSubtitle                       : Yes (English)\r\n \nhttp://ititli.com/Cw \nhttp://ititli.com/C2 \nhttp://ititli.com/C6 \nhttp://ititli.com/C8 \nhttp://ititli.com/Ce \nhttp://ititli.com/Cj \nhttp://ititli.com/Ck \nhttp://ititli.com/Co \nhttp://ititli.com/CG\r\n\r\n----------------------------------------------------------------------------------------------------\r\n\r\n\r\nEncoder Notes: Looking For Early Access To Anything You Can Provide WEBDL, DVDScr, DVDR, BluRay,\r\nDirect Audio, Music Releases and Seedboxes. If You Got anything to offer please contact us.\r\n\r\nSupport us by donating BC - 1FgwdzPsd1y25Gea8wP1qni35uGCtmkRCD\r\n\r\nSend some love!\r\nFind us and join us!","torrent":{"xt":"urn:btih:d09a0c1eff73f6a317bef2b2a72897d73373faaf","amp;dn":"The.Transporter.Refueled.2015.BRRip.480p.x264.AAC-VYTO+%5BP2PDL%5D","amp;tr":["udp%3A%2F%2Ftracker.leechers-paradise.org%3A6969","udp%3A%2F%2Fzer0day.ch%3A1337","udp%3A%2F%2Fopen.demonii.com%3A1337","udp%3A%2F%2Ftracker.coppersurfer.tk%3A6969","udp%3A%2F%2Fexodus.desync.com%3A6969"],"infoHash":"d09a0c1eff73f6a317bef2b2a72897d73373faaf","infoHashBuffer":{"type":"Buffer","data":[208,154,12,30,255,115,246,163,23,190,242,178,167,40,151,215,51,115,250,175]},"announce":[],"urlList":[]}}